HIERARCHY
ROOT Hip
{
  OFFSET 0.0 0.0 0.0
  CHANNELS 6 Xposition Yposition Zposition Xrotation Yrotation Zrotation
  JOINT LowerSpine
  {
    OFFSET 0.0 0.061367 -0.03653
    CHANNELS 3 Xrotation Yrotation Zrotation
    JOINT MiddleSpine
    {
      OFFSET 0.0 0.056002 0.002633
      CHANNELS 3 Xrotation Yrotation Zrotation
      JOINT Chest
      {
        OFFSET 0.0 0.069296 -0.013882
        CHANNELS 3 Xrotation Yrotation Zrotation
        JOINT Neck
        {
          OFFSET 0.0 0.156156 -0.002923
          CHANNELS 3 Xrotation Yrotation Zrotation
          JOINT Head
          {
            OFFSET 0.0 0.088183 0.023986
            CHANNELS 3 Xrotation Yrotation Zrotation
            End Site
            {
              OFFSET 1e-06 0.123215 0.003678
            }
          }
        }
        JOINT LClavicle
        {
          OFFSET 0.014189 0.150698 0.046467
          CHANNELS 3 Xrotation Yrotation Zrotation
          JOINT LShoulder
          {
            OFFSET 0.082893 0.021616 -0.034976
            CHANNELS 3 Xrotation Yrotation Zrotation
            JOINT LForearm
            {
              OFFSET 0.195645 -0.000695 -0.001695
              CHANNELS 3 Xrotation Yrotation Zrotation
              JOINT LHand
              {
                OFFSET 0.163209 0.000474 -0.000977
                CHANNELS 3 Xrotation Yrotation Zrotation
                End Site
                {
                  OFFSET 0.0 0.006864 0.0
                }
              }
            }
          }
        }
        JOINT RClavicle
        {
          OFFSET -0.014189 0.150698 0.046467
          CHANNELS 3 Xrotation Yrotation Zrotation
          JOINT RShoulder
          {
            OFFSET -0.082908 0.021619 -0.034982
            CHANNELS 3 Xrotation Yrotation Zrotation
            JOINT RForearm
            {
              OFFSET -0.195645 -0.000695 -0.001695
              CHANNELS 3 Xrotation Yrotation Zrotation
              JOINT RHand
              {
                OFFSET -0.163209 0.000474 -0.000977
                CHANNELS 3 Xrotation Yrotation Zrotation
                End Site
                {
                  OFFSET 0.0 0.006864 0.0
                }
              }
            }
          }
        }
      }
    }
  }
  JOINT RThigh
  {
    OFFSET -0.072558 0.02774 -0.005953
    CHANNELS 3 Xrotation Yrotation Zrotation
    JOINT RShin
    {
      OFFSET -0.005253 -0.285537 0.0
      CHANNELS 3 Xrotation Yrotation Zrotation
      JOINT RFoot
      {
        OFFSET 0.0 -0.28038 0.0
        CHANNELS 3 Xrotation Yrotation Zrotation
        JOINT RToe
        {
          OFFSET 0.0 -0.030816 0.064441
          CHANNELS 3 Xrotation Yrotation Zrotation
          End Site
          {
            OFFSET 0.0 0.0 0.043231
          }
        }
      }
    }
  }
  JOINT LThigh
  {
    OFFSET 0.072557 0.027741 -0.005953
    CHANNELS 3 Xrotation Yrotation Zrotation
    JOINT LShin
    {
      OFFSET 0.005253 -0.285539 0.0
      CHANNELS 3 Xrotation Yrotation Zrotation
      JOINT LFoot
      {
        OFFSET 0.0 -0.28038 0.0
        CHANNELS 3 Xrotation Yrotation Zrotation
        JOINT LToe
        {
          OFFSET 0.0 -0.030816 0.064441
          CHANNELS 3 Xrotation Yrotation Zrotation
          End Site
          {
            OFFSET 0.0 0.0 0.043231
          }
        }
      }
    }
  }
}
MOTION
Frames: 10
Frame Time: 0.03333333333333333
-0.036443 0.560981 -0.057732 -2.353643 -0.760922 2.562104 2.1071 -0.232799 0.05627 0.327994 1.311433 0.263987 1.114462 5.777513 -1.395924 1.570529 0.325052 0.419986 0.027609 -0.181147 -0.019584 -1.324528 -1.595007 -10.724719 12.005105 -26.122952 -56.082985 8.070267 -46.820488 1.041645 0.066292 0.107105 -0.065152 -1.855785 1.440194 12.507685 0.597001 37.082607 66.453568 2.867764 42.936817 3.132166 -0.170743 -0.052948 -0.011446 -9.551366 -1.910693 -0.032095 18.614031 -1.091076 1.373695 -3.930032 0.188881 -0.256539 -0.097043 0.172457 0.109386 -0.491875 9.955141 2.185604 3.870366 5.590937 -4.634124 -2.889058 -0.184775 0.170741 0.068982 -0.067583 -0.030489 
-0.035793 0.561936 -0.063018 -1.795836 -0.760269 2.4903 2.154984 -0.255407 0.023356 0.217483 1.275392 0.278293 0.302896 5.732416 -1.541422 1.616072 0.343786 0.418397 0.028374 -0.182329 -0.01852 -1.310047 -1.609092 -10.584482 12.058101 -25.857735 -56.413494 8.353601 -46.712353 1.073301 0.071157 0.115828 -0.072763 -1.81479 1.31687 12.568852 -0.077902 37.791176 67.271118 2.996495 39.514099 2.854582 -0.161528 -0.06545 -0.01078 -11.342871 -1.615025 -0.207428 19.40251 -1.019294 1.456669 -3.818455 0.054599 -0.325553 -0.089564 0.187843 0.10936 -1.854234 10.517833 2.239578 4.727569 6.217334 -5.002319 -3.026402 -0.147886 0.171996 0.0701 -0.073621 -0.027787 
-0.034497 0.563361 -0.069286 -0.514677 -0.690296 2.408442 2.164439 -0.268361 0.008362 0.055401 1.194048 0.276967 -0.71247 5.568441 -1.807231 1.645175 0.355514 0.415425 0.028593 -0.189036 -0.017987 -1.299392 -1.609649 -10.474966 12.354388 -25.279686 -56.665016 8.667266 -46.974754 1.07765 0.073811 0.12247 -0.076308 -1.765999 1.243829 12.639501 -0.346309 38.229401 68.067696 3.003789 36.563446 2.757472 -0.156212 -0.069528 -0.010113 -13.979395 -1.254691 -0.412717 20.309839 -0.994065 1.569873 -3.817122 -0.074559 -0.387307 -0.087045 0.198963 0.106036 -4.343492 10.9547 2.348801 6.016677 6.844007 -5.34293 -3.089868 -0.14307 0.17455 0.072135 -0.078905 -0.024744 
-0.033075 0.564648 -0.075504 1.165242 -0.434536 2.215058 2.150672 -0.2788 -0.007687 -0.150895 1.090629 0.277669 -1.870495 5.299383 -2.019409 1.662902 0.366101 0.412934 0.027911 -0.202862 -0.019569 -1.296316 -1.607682 -10.363149 12.854306 -24.511454 -56.824543 9.075628 -47.467495 1.086798 0.074641 0.128017 -0.078641 -1.735455 1.242812 12.682174 -0.133437 38.263783 68.612587 3.130991 34.891979 2.807822 -0.152728 -0.06913 -0.009365 -16.929323 -1.099699 -0.595985 21.160143 -1.095085 1.735953 -3.803184 -0.184471 -0.436917 -0.087966 0.203704 0.10144 -7.449857 11.22801 2.551732 7.51791 7.398196 -5.598059 -3.106527 -0.148768 0.172 0.072347 -0.082807 -0.022069 
-0.031676 0.565652 -0.080705 3.048648 -0.259476 2.146633 2.119711 -0.283378 -0.027103 -0.372813 1.00156 0.266351 -3.135796 4.969745 -2.130608 1.692811 0.377431 0.392937 0.026843 -0.2094 -0.023048 -1.298227 -1.56172 -10.273214 13.476303 -23.422295 -57.029202 9.377127 -48.558258 1.024222 0.073341 0.128825 -0.077155 -1.687989 1.19137 12.775343 0.290407 37.900063 69.091721 3.149892 33.685505 2.95874 -0.147124 -0.064202 -0.008137 -19.850313 -1.061229 -0.747284 21.733624 -1.271687 1.903759 -3.851234 -0.282533 -0.478007 -0.085267 0.19923 0.093507 -10.643809 11.458264 2.637454 8.971939 7.933837 -5.760551 -3.083774 -0.143286 0.168977 0.068216 -0.079132 -0.018443 
-0.029056 0.563203 -0.088742 3.992051 -0.594687 2.158923 2.0827 -0.292296 -0.040141 -0.515043 0.932471 0.276723 -4.022318 4.716059 -2.128072 1.711117 0.380747 0.377027 0.027248 -0.203661 -0.024428 -1.314402 -1.534175 -10.278694 14.001612 -22.877377 -57.142384 9.532475 -49.027592 0.983033 0.070614 0.126317 -0.072803 -1.643124 1.179663 12.768476 0.916275 37.497665 69.102371 3.293337 33.964703 3.061129 -0.14053 -0.060163 -0.006746 -21.196606 -1.222181 -0.940006 21.747688 -1.451344 2.030392 -3.832696 -0.332325 -0.48893 -0.081513 0.190806 0.084838 -12.10981 11.546804 2.572188 9.48865 8.153133 -5.754158 -3.094952 -0.138481 0.162845 0.064842 -0.074459 -0.013398 
-0.025493 0.559007 -0.090713 4.053711 -1.11986 1.907651 2.075102 -0.323215 -0.051191 -0.519537 0.907286 0.282412 -4.188374 4.555268 -2.306563 1.721018 0.389807 0.377264 0.0301 -0.209617 -0.025301 -1.310753 -1.537174 -10.345257 13.984907 -23.503956 -56.868408 9.663093 -47.613155 1.168277 0.072679 0.129667 -0.07475 -1.607104 1.183873 12.684375 1.033035 37.938469 69.038193 3.838919 34.883659 2.93182 -0.147929 -0.066078 -0.00769 -21.442335 -1.303798 -0.887256 21.614582 -1.513975 2.030522 -3.506955 -0.339701 -0.47722 -0.08251 0.197763 0.085481 -12.047801 11.769041 2.779624 9.669464 8.513524 -5.888618 -3.237454 -0.056846 0.2043 0.069328 -0.084271 -0.016102 
-0.030757 0.557094 -0.08819 4.129618 -0.919092 1.535153 2.048069 -0.35176 -0.046621 -0.459696 0.893134 0.274268 -3.865416 4.509037 -2.608909 1.684321 0.399783 0.398263 0.031948 -0.223887 -0.02567 -1.285681 -1.578607 -10.356223 13.991399 -24.255413 -56.458385 9.80692 -46.41214 1.193476 0.077245 0.137243 -0.082478 -1.627422 1.25866 12.621319 1.126809 38.541309 68.892731 4.416282 35.711838 2.792515 -0.165635 -0.072013 -0.010241 -21.481974 -1.195581 -0.612396 21.637402 -1.450851 1.918223 -3.336495 -0.327521 -0.476783 -0.091005 0.214209 0.093925 -12.248417 11.770581 3.330289 10.004784 8.688891 -6.070844 -3.316642 -0.006654 0.23786 0.077738 -0.098445 -0.023539 
-0.037342 0.554225 -0.091068 5.348564 -0.531259 1.197709 1.988328 -0.366091 -0.022349 -0.392893 0.877035 0.253432 -3.655002 4.473358 -3.087504 1.613709 0.4239 0.414466 0.035523 -0.248036 -0.030619 -1.197173 -1.565088 -10.293656 14.357169 -25.268984 -55.776226 10.314059 -45.541416 1.130736 0.086035 0.153499 -0.097229 -1.598327 1.237538 12.582744 1.050718 39.995888 68.739586 5.187658 34.976395 2.570758 -0.188518 -0.082379 -0.014272 -23.065639 -0.727593 -0.264075 22.742149 -1.373429 1.798995 -3.343324 -0.370677 -0.520057 -0.104649 0.24175 0.106433 -14.363024 11.741089 4.315436 11.499084 9.006887 -6.489781 -3.367107 0.025981 0.259044 0.094023 -0.121105 -0.035872 
-0.041807 0.553058 -0.0926 6.78827 -0.260411 1.050298 1.884502 -0.355034 0.032673 -0.314712 0.859074 0.219483 -3.628182 4.399543 -3.64586 1.518614 0.429369 0.414741 0.03759 -0.266855 -0.03401 -1.147829 -1.554969 -10.25412 15.030899 -26.088781 -54.784363 11.033479 -45.266476 1.053218 0.09278 0.165357 -0.106126 -1.577964 1.238773 12.565779 1.375953 41.295303 68.248474 6.036546 34.325859 2.511992 -0.207165 -0.084922 -0.017686 -25.36389 -0.153002 0.102909 24.266426 -1.205115 1.633452 -3.415323 -0.404695 -0.552468 -0.115068 0.254128 0.114872 -16.903151 11.675952 5.15253 13.353953 9.219229 -6.935862 -3.349181 0.002056 0.256031 0.10619 -0.140345 -0.045398 
